<?xml version="1.0" encoding="UTF-8" standalone="no"?>
<svg
   xmlns:dc="http://purl.org/dc/elements/1.1/"
   xmlns:cc="http://creativecommons.org/ns#"
   xmlns:rdf="http://www.w3.org/1999/02/22-rdf-syntax-ns#"
   xmlns:svg="http://www.w3.org/2000/svg"
   xmlns="http://www.w3.org/2000/svg"
   id="svg8"
   version="1.1"
   viewBox="0 0 81.88887 118.63747"
   height="118.63747mm"
   width="81.88887mm">
  <defs
     id="defs2" />
  <metadata
     id="metadata5">
    <rdf:RDF>
      <cc:Work
         rdf:about="">
        <dc:format>image/svg+xml</dc:format>
        <dc:type
           rdf:resource="http://purl.org/dc/dcmitype/StillImage" />
        <dc:title></dc:title>
      </cc:Work>
    </rdf:RDF>
  </metadata>
  <g
     transform="translate(-60.932704,-70.952753)"
     id="layer1">
    <path
       id="path3713"
       d="m 94.613411,86.391611 c -2.892176,1.270472 -4.892743,1.249109 -6.716987,2.923875 -2.865971,0.651884 -6.407446,0.947871 -7.448297,2.956056 -0.566837,2.105234 -3.999138,3.64925 -2.830029,7.050444 -0.09063,2.656294 -1.101083,4.345764 -0.644476,7.382104 -0.894944,0.90333 -0.662437,3.99178 -2.238382,4.71063 0.734619,2.42286 -3.438441,2.12304 -3.798444,3.87182 -2.056318,3.03215 -5.820119,2.40912 -6.190352,5.71812 -2.490972,4.70994 1.777591,7.23797 5.81271,7.081 3.495878,1.72736 8.60262,1.1404 10.958052,-0.53454 3.28544,-2.03493 6.652115,-4.15602 10.825335,-4.43794 2.187296,-0.47585 8.346099,2.38178 4.141758,2.83432 -1.584612,1.12662 -3.62805,1.83468 -4.009044,2.6727 -2.111423,1.20593 -4.318477,3.16693 -7.019878,2.91061 -2.218247,2.89194 5.234354,2.21157 7.019878,1.63297 1.956394,-0.66344 3.525389,-1.19505 5.996709,-1.96517 3.368296,0.90092 4.251426,-2.50699 6.832226,-2.04387 2.37115,-1.63852 5.71076,0.28103 6.68174,2.13815 3.0929,2.93373 -0.0931,8.53519 0.83,12.59009 0.69927,5.02004 -0.82763,8.83102 -0.38733,13.24319 -1.28536,1.32324 -0.15665,4.34705 -1.77902,5.16999 -0.86748,1.50895 -5.23422,3.2682 -8.24726,1.27165 -3.769787,-1.43186 -7.544542,-5.98632 -6.719831,-10.35882 -1.458995,-2.04942 -1.196323,-4.86904 -4.720131,-4.66526 -1.242787,-1.32026 -1.967501,-2.33275 -3.535224,-3.83003 -0.315697,-1.07179 -6.603178,-1.15915 -8.048086,-1.79458 -0.909075,0.63196 -1.97692,5.24597 1.954802,4.07416 3.541781,1.21722 -0.114666,3.63186 -0.618453,4.61209 -2.564473,2.43756 -7.336547,3.31654 -9.621703,4.81086 -1.610138,2.95797 -6.683518,3.15062 -7.947216,6.17655 -2.234613,1.86059 -2.60312,6.68146 -1.424041,9.65893 -0.617513,4.2495 8.42731,0.0711 1.712779,1.63902 -2.806484,0.45814 -2.274525,7.01586 0.659931,6.8594 3.735776,1.56372 6.824026,4.68985 11.621164,5.28483 4.962516,0.0506 9.858497,2.02213 14.879508,1.95815 4.367499,-1.17616 9.008775,2.86328 13.002431,0.93303 4.90586,-0.0754 8.02407,-3.09855 11.31028,-6.06275 2.36546,-0.95148 0.16974,-5.41134 1.62098,-7.20376 0.0807,-2.19403 2.47176,-4.2176 3.20724,-6.41447 1.18196,-1.37287 1.8353,-4.53589 2.67269,-5.87993 0.18229,-2.75097 1.02476,-4.57161 2.13467,-7.5142 -0.49593,-3.9926 0.29983,-6.9148 1.07257,-9.59105 2.18707,-0.31098 1.49101,-7.033 1.58993,-2.03071 0.67391,6.4204 -2.28079,12.26138 -3.00228,18.40081 -2.03374,1.44873 -0.14478,5.61299 -2.86396,7.14962 -0.0593,5.41716 -1.43224,10.86317 -2.03793,15.95265 -2.27444,4.49164 6.99145,1.50416 9.71128,2.43247 2.87462,-0.87307 5.99311,-1.51694 9.23105,-1.27987 2.444,-0.43005 5.70116,1.33135 3.94262,-2.13815 -0.22431,-2.18269 0.46783,-4.64254 -0.38018,-6.64112 -3.78059,-4.29993 -2.01713,-10.1057 -2.16549,-15.4904 -0.23281,-4.33639 -2.10877,-5.94644 -3.03827,-9.99667 -1.96564,-2.64417 -1.73328,-7.33618 -0.9014,-9.86248 2.09902,-1.00354 -1.48751,-10.76185 2.74356,-5.04877 2.11077,1.33851 5.72933,7.88569 2.6727,2.67269 -0.75288,-1.69272 -2.56934,-7.04994 -0.83129,-9.14022 4.25555,-0.21377 -1.37429,1.07884 -0.0501,-2.09786 -1.09978,-1.254 -3.24431,-4.16372 -3.52856,-4.39718 2.00505,-0.32207 5.05698,1.2393 3.90369,0.59128 -0.53618,-2.34133 -3.09081,-2.11238 -4.10187,-5.33307 -2.02997,-3.48268 1.33127,-0.87682 2.67508,-2.61375 -0.96787,-1.89174 -3.65354,-3.11376 -3.94688,-3.20161 1.1711,-1.18106 2.03704,-2.28381 4.27631,-2.13816 -4.51213,1.24669 -1.96324,-2.7977 0.17123,-2.80047 -1.07306,-1.35712 -5.08623,-0.3969 -1.10667,-1.42479 -1.27129,-0.87483 -1.70548,-7.29962 -5.56678,-3.04118 -1.79061,-1.21686 -4.40301,-2.84494 -6.32671,-3.69161 -1.95736,-1.374182 -5.0819,-1.096417 -8.62167,-1.991933 -2.36916,0.787981 -2.91118,0.452541 -4.20727,2.259203 -1.17874,2.32915 -0.25316,5.88354 2.95564,6.65273 3.08317,3.02306 8.76025,1.52884 9.33876,6.71075 0.98642,2.74671 1.99999,10.6382 -2.13816,10.69078 -1.06582,2.34353 -5.60318,1.38457 -3.80279,3.18679 -2.16699,0.0111 5.99388,1.69264 7.01002,0.0205 2.62849,0.10419 2.4035,-2.68649 2.76617,-5.03394 -0.27105,-4.60856 -0.167,-9.98875 -2.4989,-12.60585 -0.61376,-1.05542 0.9083,1.09579 -0.25339,-1.70808 -2.01934,-3.23444 4.90905,-4.53814 0.52066,-5.5082 -0.008,-1.31864 -4.07094,0.42457 -1.60361,2.40543 -0.78491,-5.03963 7.08493,0.84521 8.81154,-2.28015 0.3715,-2.70979 3.32011,-9.506621 -2.35666,-8.7119 -1.76937,-1.374098 5.10387,-4.530463 2.82605,-6.009637 -2.14925,-3.166758 -4.92173,-2.480617 -8.21185,-4.379879 -2.22429,0.122986 0.6884,-4.81471 -0.99821,-6.711093 -1.93395,-1.81331 -6.84506,-2.026796 -9.42531,-3.979687 -2.36747,-1.835921 -5.20685,-3.286939 -8.88295,-2.46774 -5.19099,1.402197 -9.980703,-1.478485 -14.906904,-0.214803 -3.572084,0.801921 -4.621559,5.830605 -7.007087,7.941476 -1.37809,5.609265 8.640378,-0.312545 5.940879,5.966386 1.408175,0.172538 -1.320463,3.167598 1.835776,1.392175 4.076639,-4.647274 11.540836,-4.065836 15.216976,0.9771 2.76628,3.264805 2.71091,7.417442 -1.81839,7.368522 -2.96635,-0.687969 -6.27648,-2.483307 -10.423513,-3.323328 -0.570349,-0.666765 -2.396777,-2.385966 -2.138156,-5.345391 z"
       style="fill:none;fill-rule:evenodd;stroke:#000000;stroke-width:0.26458332px;stroke-linecap:butt;stroke-linejoin:miter;stroke-opacity:1" />
  </g>
</svg>
